<mxfile host="app.diagrams.net" modified="2024-01-31T01:38:27.036Z" agent="Mozilla/5.0 (Windows NT 10.0; Win64; x64) AppleWebKit/537.36 (KHTML, like Gecko) Chrome/121.0.0.0 Safari/537.36" etag="wKvBD4-6_mouf3aFbIP3" version="23.0.2" type="github">
  <diagram name="PÃ¡gina-1" id="IgiCA1_67sR2zVPU2hnD">
    <mxGraphModel dx="1383" dy="1458" grid="0" gridSize="10" guides="1" tooltips="1" connect="1" arrows="1" fold="1" page="0" pageScale="1" pageWidth="827" pageHeight="1169" math="0" shadow="0">
      <root>
        <mxCell id="0" />
        <mxCell id="1" parent="0" />
        <mxCell id="IkOhHTzU_s6UO9xHXkGo-1" value="" style="rounded=0;whiteSpace=wrap;html=1;fontSize=16;" vertex="1" parent="1">
          <mxGeometry x="-665" y="44" width="268" height="217" as="geometry" />
        </mxCell>
        <mxCell id="IkOhHTzU_s6UO9xHXkGo-2" value="Sistema A" style="text;html=1;strokeColor=none;fillColor=none;align=center;verticalAlign=middle;whiteSpace=wrap;rounded=0;fontSize=16;" vertex="1" parent="1">
          <mxGeometry x="-613" y="44" width="77" height="35" as="geometry" />
        </mxCell>
        <mxCell id="IkOhHTzU_s6UO9xHXkGo-36" style="edgeStyle=none;curved=1;rounded=0;orthogonalLoop=1;jettySize=auto;html=1;exitX=1;exitY=1;exitDx=0;exitDy=0;entryX=1;entryY=1;entryDx=0;entryDy=0;fontSize=12;startSize=8;endSize=8;" edge="1" parent="1" source="IkOhHTzU_s6UO9xHXkGo-3" target="IkOhHTzU_s6UO9xHXkGo-17">
          <mxGeometry relative="1" as="geometry">
            <Array as="points">
              <mxPoint x="-139" y="-117" />
            </Array>
          </mxGeometry>
        </mxCell>
        <mxCell id="IkOhHTzU_s6UO9xHXkGo-47" value="Text" style="edgeLabel;html=1;align=center;verticalAlign=middle;resizable=0;points=[];fontSize=16;" vertex="1" connectable="0" parent="IkOhHTzU_s6UO9xHXkGo-36">
          <mxGeometry x="0.3169" y="-1" relative="1" as="geometry">
            <mxPoint x="1" as="offset" />
          </mxGeometry>
        </mxCell>
        <mxCell id="IkOhHTzU_s6UO9xHXkGo-3" value="" style="rounded=0;whiteSpace=wrap;html=1;fontSize=16;" vertex="1" parent="1">
          <mxGeometry x="-142" y="-559.5" width="189" height="186" as="geometry" />
        </mxCell>
        <mxCell id="IkOhHTzU_s6UO9xHXkGo-15" style="edgeStyle=none;curved=1;rounded=0;orthogonalLoop=1;jettySize=auto;html=1;exitX=1;exitY=1;exitDx=0;exitDy=0;fontSize=12;startSize=8;endSize=8;" edge="1" parent="1" source="IkOhHTzU_s6UO9xHXkGo-5">
          <mxGeometry relative="1" as="geometry">
            <mxPoint x="-348" y="-156" as="targetPoint" />
          </mxGeometry>
        </mxCell>
        <mxCell id="IkOhHTzU_s6UO9xHXkGo-16" style="edgeStyle=none;curved=1;rounded=0;orthogonalLoop=1;jettySize=auto;html=1;exitX=0.5;exitY=1;exitDx=0;exitDy=0;fontSize=12;startSize=8;endSize=8;" edge="1" parent="1" source="IkOhHTzU_s6UO9xHXkGo-5">
          <mxGeometry relative="1" as="geometry">
            <mxPoint x="-405" y="-127" as="targetPoint" />
          </mxGeometry>
        </mxCell>
        <mxCell id="IkOhHTzU_s6UO9xHXkGo-18" style="edgeStyle=none;curved=1;rounded=0;orthogonalLoop=1;jettySize=auto;html=1;exitX=1;exitY=0;exitDx=0;exitDy=0;entryX=0;entryY=1;entryDx=0;entryDy=0;fontSize=12;startSize=8;endSize=8;" edge="1" parent="1" source="IkOhHTzU_s6UO9xHXkGo-5" target="IkOhHTzU_s6UO9xHXkGo-3">
          <mxGeometry relative="1" as="geometry">
            <Array as="points">
              <mxPoint x="-143" y="-348" />
            </Array>
          </mxGeometry>
        </mxCell>
        <mxCell id="IkOhHTzU_s6UO9xHXkGo-20" style="edgeStyle=none;curved=1;rounded=0;orthogonalLoop=1;jettySize=auto;html=1;exitX=0;exitY=0;exitDx=0;exitDy=0;entryX=0;entryY=0;entryDx=0;entryDy=0;fontSize=12;startSize=8;endSize=8;" edge="1" parent="1" source="IkOhHTzU_s6UO9xHXkGo-5" target="IkOhHTzU_s6UO9xHXkGo-13">
          <mxGeometry relative="1" as="geometry" />
        </mxCell>
        <mxCell id="IkOhHTzU_s6UO9xHXkGo-5" value="" style="rounded=0;whiteSpace=wrap;html=1;fontSize=16;" vertex="1" parent="1">
          <mxGeometry x="-573" y="-317" width="422" height="348" as="geometry" />
        </mxCell>
        <mxCell id="IkOhHTzU_s6UO9xHXkGo-6" value="CI" style="text;html=1;strokeColor=none;fillColor=none;align=center;verticalAlign=middle;whiteSpace=wrap;rounded=0;fontSize=16;" vertex="1" parent="1">
          <mxGeometry x="-442" y="-290" width="60" height="30" as="geometry" />
        </mxCell>
        <mxCell id="IkOhHTzU_s6UO9xHXkGo-7" value="" style="ellipse;whiteSpace=wrap;html=1;aspect=fixed;fontSize=16;" vertex="1" parent="1">
          <mxGeometry x="-602" y="77" width="45" height="45" as="geometry" />
        </mxCell>
        <mxCell id="IkOhHTzU_s6UO9xHXkGo-10" style="edgeStyle=none;curved=1;rounded=0;orthogonalLoop=1;jettySize=auto;html=1;exitX=1;exitY=0.5;exitDx=0;exitDy=0;fontSize=12;startSize=8;endSize=8;entryX=1;entryY=0.5;entryDx=0;entryDy=0;" edge="1" parent="1" source="IkOhHTzU_s6UO9xHXkGo-8" target="IkOhHTzU_s6UO9xHXkGo-8">
          <mxGeometry relative="1" as="geometry" />
        </mxCell>
        <mxCell id="IkOhHTzU_s6UO9xHXkGo-11" style="edgeStyle=none;curved=1;rounded=0;orthogonalLoop=1;jettySize=auto;html=1;exitX=1;exitY=0.75;exitDx=0;exitDy=0;fontSize=12;startSize=8;endSize=8;" edge="1" parent="1" source="IkOhHTzU_s6UO9xHXkGo-8" target="IkOhHTzU_s6UO9xHXkGo-9">
          <mxGeometry relative="1" as="geometry" />
        </mxCell>
        <mxCell id="IkOhHTzU_s6UO9xHXkGo-8" value="Start" style="text;html=1;strokeColor=none;fillColor=none;align=center;verticalAlign=middle;whiteSpace=wrap;rounded=0;fontSize=16;" vertex="1" parent="1">
          <mxGeometry x="-608.5" y="90" width="51.5" height="24.5" as="geometry" />
        </mxCell>
        <mxCell id="IkOhHTzU_s6UO9xHXkGo-12" style="edgeStyle=none;curved=1;rounded=0;orthogonalLoop=1;jettySize=auto;html=1;exitX=1;exitY=1;exitDx=0;exitDy=0;fontSize=12;startSize=8;endSize=8;entryX=0;entryY=0;entryDx=0;entryDy=0;" edge="1" parent="1" source="IkOhHTzU_s6UO9xHXkGo-9" target="IkOhHTzU_s6UO9xHXkGo-13">
          <mxGeometry relative="1" as="geometry">
            <mxPoint x="-355" y="-321" as="targetPoint" />
          </mxGeometry>
        </mxCell>
        <mxCell id="IkOhHTzU_s6UO9xHXkGo-9" value="Consulta Cep durante cadastro do cliente" style="rounded=0;whiteSpace=wrap;html=1;fontSize=16;" vertex="1" parent="1">
          <mxGeometry x="-498" y="53" width="75" height="108.5" as="geometry" />
        </mxCell>
        <mxCell id="IkOhHTzU_s6UO9xHXkGo-19" style="edgeStyle=none;curved=1;rounded=0;orthogonalLoop=1;jettySize=auto;html=1;exitX=1;exitY=0.5;exitDx=0;exitDy=0;entryX=0;entryY=0.5;entryDx=0;entryDy=0;fontSize=12;startSize=8;endSize=8;" edge="1" parent="1" source="IkOhHTzU_s6UO9xHXkGo-13" target="IkOhHTzU_s6UO9xHXkGo-17">
          <mxGeometry relative="1" as="geometry" />
        </mxCell>
        <mxCell id="IkOhHTzU_s6UO9xHXkGo-13" value="Montar os parametros de consulta" style="rounded=0;whiteSpace=wrap;html=1;fontSize=16;" vertex="1" parent="1">
          <mxGeometry x="-531" y="-280" width="98" height="69" as="geometry" />
        </mxCell>
        <mxCell id="IkOhHTzU_s6UO9xHXkGo-50" style="edgeStyle=none;curved=1;rounded=0;orthogonalLoop=1;jettySize=auto;html=1;exitX=1;exitY=1;exitDx=0;exitDy=0;entryX=0.5;entryY=0;entryDx=0;entryDy=0;fontSize=12;startSize=8;endSize=8;" edge="1" parent="1" source="IkOhHTzU_s6UO9xHXkGo-17" target="IkOhHTzU_s6UO9xHXkGo-49">
          <mxGeometry relative="1" as="geometry" />
        </mxCell>
        <mxCell id="IkOhHTzU_s6UO9xHXkGo-17" value="Consultar Cep" style="rounded=0;whiteSpace=wrap;html=1;fontSize=16;" vertex="1" parent="1">
          <mxGeometry x="-426" y="-204" width="120" height="60" as="geometry" />
        </mxCell>
        <mxCell id="IkOhHTzU_s6UO9xHXkGo-21" style="edgeStyle=none;curved=1;rounded=0;orthogonalLoop=1;jettySize=auto;html=1;exitX=1;exitY=0;exitDx=0;exitDy=0;entryX=1;entryY=0;entryDx=0;entryDy=0;fontSize=12;startSize=8;endSize=8;" edge="1" parent="1" source="IkOhHTzU_s6UO9xHXkGo-17" target="IkOhHTzU_s6UO9xHXkGo-5">
          <mxGeometry relative="1" as="geometry" />
        </mxCell>
        <mxCell id="IkOhHTzU_s6UO9xHXkGo-22" value="API Consulta Cep" style="rounded=0;whiteSpace=wrap;html=1;fontSize=16;" vertex="1" parent="1">
          <mxGeometry x="-122" y="-502" width="120" height="60" as="geometry" />
        </mxCell>
        <mxCell id="IkOhHTzU_s6UO9xHXkGo-27" value="Sistema B" style="text;html=1;strokeColor=none;fillColor=none;align=center;verticalAlign=middle;whiteSpace=wrap;rounded=0;fontSize=16;" vertex="1" parent="1">
          <mxGeometry x="-137" y="-551" width="80" height="40" as="geometry" />
        </mxCell>
        <mxCell id="IkOhHTzU_s6UO9xHXkGo-33" style="edgeStyle=none;curved=1;rounded=0;orthogonalLoop=1;jettySize=auto;html=1;exitX=0.25;exitY=1;exitDx=0;exitDy=0;fontSize=12;startSize=8;endSize=8;" edge="1" parent="1" source="IkOhHTzU_s6UO9xHXkGo-3" target="IkOhHTzU_s6UO9xHXkGo-3">
          <mxGeometry relative="1" as="geometry" />
        </mxCell>
        <mxCell id="IkOhHTzU_s6UO9xHXkGo-44" style="edgeStyle=none;curved=1;rounded=0;orthogonalLoop=1;jettySize=auto;html=1;exitX=0;exitY=0;exitDx=0;exitDy=0;entryX=1;entryY=1;entryDx=0;entryDy=0;fontSize=12;startSize=8;endSize=8;" edge="1" parent="1" source="IkOhHTzU_s6UO9xHXkGo-38" target="IkOhHTzU_s6UO9xHXkGo-43">
          <mxGeometry relative="1" as="geometry" />
        </mxCell>
        <mxCell id="IkOhHTzU_s6UO9xHXkGo-38" value="Montar os dados em formato JSON" style="rounded=0;whiteSpace=wrap;html=1;fontSize=16;" vertex="1" parent="1">
          <mxGeometry x="-475" y="-103" width="120" height="60" as="geometry" />
        </mxCell>
        <mxCell id="IkOhHTzU_s6UO9xHXkGo-46" style="edgeStyle=none;curved=1;rounded=0;orthogonalLoop=1;jettySize=auto;html=1;exitX=0;exitY=0.5;exitDx=0;exitDy=0;entryX=1;entryY=0.5;entryDx=0;entryDy=0;fontSize=12;startSize=8;endSize=8;" edge="1" parent="1" source="IkOhHTzU_s6UO9xHXkGo-43" target="IkOhHTzU_s6UO9xHXkGo-45">
          <mxGeometry relative="1" as="geometry" />
        </mxCell>
        <mxCell id="IkOhHTzU_s6UO9xHXkGo-43" value="AtualizaÃ§Ã£o de cadastramento" style="rounded=0;whiteSpace=wrap;html=1;fontSize=16;" vertex="1" parent="1">
          <mxGeometry x="-585" y="176.5" width="120" height="60" as="geometry" />
        </mxCell>
        <mxCell id="IkOhHTzU_s6UO9xHXkGo-45" value="Fim" style="ellipse;whiteSpace=wrap;html=1;aspect=fixed;fontSize=16;" vertex="1" parent="1">
          <mxGeometry x="-657" y="178" width="57" height="57" as="geometry" />
        </mxCell>
        <mxCell id="IkOhHTzU_s6UO9xHXkGo-51" style="edgeStyle=none;curved=1;rounded=0;orthogonalLoop=1;jettySize=auto;html=1;exitX=0.5;exitY=1;exitDx=0;exitDy=0;entryX=1;entryY=0;entryDx=0;entryDy=0;fontSize=12;startSize=8;endSize=8;" edge="1" parent="1" source="IkOhHTzU_s6UO9xHXkGo-49" target="IkOhHTzU_s6UO9xHXkGo-38">
          <mxGeometry relative="1" as="geometry" />
        </mxCell>
        <mxCell id="IkOhHTzU_s6UO9xHXkGo-52" value="Sim&lt;br&gt;" style="edgeLabel;html=1;align=center;verticalAlign=middle;resizable=0;points=[];fontSize=16;" vertex="1" connectable="0" parent="IkOhHTzU_s6UO9xHXkGo-51">
          <mxGeometry x="0.0259" y="2" relative="1" as="geometry">
            <mxPoint as="offset" />
          </mxGeometry>
        </mxCell>
        <mxCell id="IkOhHTzU_s6UO9xHXkGo-54" style="edgeStyle=none;curved=1;rounded=0;orthogonalLoop=1;jettySize=auto;html=1;exitX=0.5;exitY=1;exitDx=0;exitDy=0;entryX=0.5;entryY=0;entryDx=0;entryDy=0;fontSize=12;startSize=8;endSize=8;" edge="1" parent="1" source="IkOhHTzU_s6UO9xHXkGo-49" target="IkOhHTzU_s6UO9xHXkGo-53">
          <mxGeometry relative="1" as="geometry" />
        </mxCell>
        <mxCell id="IkOhHTzU_s6UO9xHXkGo-49" value="Sucesso" style="rhombus;whiteSpace=wrap;html=1;fontSize=16;" vertex="1" parent="1">
          <mxGeometry x="-241" y="-146" width="80" height="80" as="geometry" />
        </mxCell>
        <mxCell id="IkOhHTzU_s6UO9xHXkGo-57" style="edgeStyle=none;curved=1;rounded=0;orthogonalLoop=1;jettySize=auto;html=1;exitX=0;exitY=0.5;exitDx=0;exitDy=0;entryX=1;entryY=0.5;entryDx=0;entryDy=0;fontSize=12;startSize=8;endSize=8;" edge="1" parent="1" source="IkOhHTzU_s6UO9xHXkGo-53" target="IkOhHTzU_s6UO9xHXkGo-56">
          <mxGeometry relative="1" as="geometry" />
        </mxCell>
        <mxCell id="IkOhHTzU_s6UO9xHXkGo-53" value="Enviar email com erro" style="rounded=0;whiteSpace=wrap;html=1;fontSize=16;" vertex="1" parent="1">
          <mxGeometry x="-275" y="-33" width="120" height="60" as="geometry" />
        </mxCell>
        <mxCell id="IkOhHTzU_s6UO9xHXkGo-56" value="Fim" style="ellipse;whiteSpace=wrap;html=1;fontSize=16;" vertex="1" parent="1">
          <mxGeometry x="-370" y="-27" width="64" height="44" as="geometry" />
        </mxCell>
      </root>
    </mxGraphModel>
  </diagram>
</mxfile>
